<mxfile host="app.diagrams.net" modified="2024-06-05T09:36:09.239Z" agent="Mozilla/5.0 (Windows NT 10.0; Win64; x64) AppleWebKit/537.36 (KHTML, like Gecko) Chrome/125.0.0.0 Safari/537.36 Edg/125.0.0.0" etag="au5aOy-V7QlWZeVwpQmx" version="24.4.13" type="device">
  <diagram name="Seite-1" id="xvf1I5SKCjnXfPiVfllO">
    <mxGraphModel dx="1514" dy="857" grid="1" gridSize="10" guides="1" tooltips="1" connect="1" arrows="1" fold="1" page="1" pageScale="1" pageWidth="827" pageHeight="1169" math="0" shadow="0">
      <root>
        <mxCell id="0" />
        <mxCell id="1" parent="0" />
        <mxCell id="XPd1o2hhk6l_1hPqZxl7-1" value="&lt;b&gt;cmp&lt;/b&gt; Stundenplan" style="shape=umlFrame;whiteSpace=wrap;html=1;pointerEvents=0;recursiveResize=0;container=1;collapsible=0;width=160;" parent="1" vertex="1">
          <mxGeometry x="20" y="20" width="790" height="660" as="geometry" />
        </mxCell>
        <mxCell id="XPd1o2hhk6l_1hPqZxl7-8" value="" style="fontStyle=1;align=center;verticalAlign=top;childLayout=stackLayout;horizontal=1;horizontalStack=0;resizeParent=1;resizeParentMax=0;resizeLast=0;marginBottom=0;" parent="XPd1o2hhk6l_1hPqZxl7-1" vertex="1">
          <mxGeometry x="40" y="155" width="160" height="40" as="geometry" />
        </mxCell>
        <mxCell id="XPd1o2hhk6l_1hPqZxl7-9" value="&amp;lt;&amp;lt;component&amp;gt;&amp;gt;&lt;div&gt;ContactpointsSerializer&lt;/div&gt;" style="html=1;align=left;spacingLeft=4;verticalAlign=top;strokeColor=none;fillColor=none;whiteSpace=wrap;" parent="XPd1o2hhk6l_1hPqZxl7-8" vertex="1">
          <mxGeometry width="160" height="40" as="geometry" />
        </mxCell>
        <mxCell id="XPd1o2hhk6l_1hPqZxl7-10" value="" style="shape=module;jettyWidth=10;jettyHeight=4;" parent="XPd1o2hhk6l_1hPqZxl7-9" vertex="1">
          <mxGeometry x="1" width="16" height="20" relative="1" as="geometry">
            <mxPoint x="-25" y="9" as="offset" />
          </mxGeometry>
        </mxCell>
        <mxCell id="XPd1o2hhk6l_1hPqZxl7-35" value="" style="fontStyle=1;align=center;verticalAlign=top;childLayout=stackLayout;horizontal=1;horizontalStack=0;resizeParent=1;resizeParentMax=0;resizeLast=0;marginBottom=0;" parent="XPd1o2hhk6l_1hPqZxl7-1" vertex="1">
          <mxGeometry x="369" y="606" width="180" height="40" as="geometry" />
        </mxCell>
        <mxCell id="XPd1o2hhk6l_1hPqZxl7-36" value="&amp;lt;&amp;lt;component&amp;gt;&amp;gt;&lt;div&gt;MongoDBCommunication&lt;/div&gt;" style="html=1;align=left;spacingLeft=4;verticalAlign=top;strokeColor=none;fillColor=none;whiteSpace=wrap;" parent="XPd1o2hhk6l_1hPqZxl7-35" vertex="1">
          <mxGeometry width="180" height="40" as="geometry" />
        </mxCell>
        <mxCell id="XPd1o2hhk6l_1hPqZxl7-37" value="" style="shape=module;jettyWidth=10;jettyHeight=4;" parent="XPd1o2hhk6l_1hPqZxl7-36" vertex="1">
          <mxGeometry x="1" width="16" height="20" relative="1" as="geometry">
            <mxPoint x="-25" y="9" as="offset" />
          </mxGeometry>
        </mxCell>
        <mxCell id="HH5l1YOxkUeo-8YhCR8G-1" value="" style="group" vertex="1" connectable="0" parent="XPd1o2hhk6l_1hPqZxl7-1">
          <mxGeometry x="40" y="70" width="140" height="68" as="geometry" />
        </mxCell>
        <mxCell id="XPd1o2hhk6l_1hPqZxl7-2" value="" style="fontStyle=1;align=center;verticalAlign=top;childLayout=stackLayout;horizontal=1;horizontalStack=0;resizeParent=1;resizeParentMax=0;resizeLast=0;marginBottom=0;" parent="HH5l1YOxkUeo-8YhCR8G-1" vertex="1">
          <mxGeometry y="28" width="140" height="40" as="geometry" />
        </mxCell>
        <mxCell id="XPd1o2hhk6l_1hPqZxl7-3" value="&amp;lt;&amp;lt;component&amp;gt;&amp;gt;&lt;div&gt;Authorization&lt;/div&gt;" style="html=1;align=left;spacingLeft=4;verticalAlign=top;strokeColor=none;fillColor=none;whiteSpace=wrap;" parent="XPd1o2hhk6l_1hPqZxl7-2" vertex="1">
          <mxGeometry width="140" height="40" as="geometry" />
        </mxCell>
        <mxCell id="XPd1o2hhk6l_1hPqZxl7-4" value="" style="shape=module;jettyWidth=10;jettyHeight=4;" parent="XPd1o2hhk6l_1hPqZxl7-3" vertex="1">
          <mxGeometry x="1" width="16" height="20" relative="1" as="geometry">
            <mxPoint x="-25" y="9" as="offset" />
          </mxGeometry>
        </mxCell>
        <mxCell id="XPd1o2hhk6l_1hPqZxl7-362" value="" style="group" parent="XPd1o2hhk6l_1hPqZxl7-1" vertex="1" connectable="0">
          <mxGeometry x="370" y="143" width="140" height="70" as="geometry" />
        </mxCell>
        <mxCell id="XPd1o2hhk6l_1hPqZxl7-293" value="" style="fontStyle=1;align=center;verticalAlign=top;childLayout=stackLayout;horizontal=1;horizontalStack=0;resizeParent=1;resizeParentMax=0;resizeLast=0;marginBottom=0;" parent="XPd1o2hhk6l_1hPqZxl7-362" vertex="1">
          <mxGeometry y="30" width="140" height="40" as="geometry" />
        </mxCell>
        <mxCell id="XPd1o2hhk6l_1hPqZxl7-294" value="&amp;lt;&amp;lt;component&amp;gt;&amp;gt;&lt;div&gt;User&lt;/div&gt;" style="html=1;align=left;spacingLeft=4;verticalAlign=top;strokeColor=none;fillColor=none;whiteSpace=wrap;" parent="XPd1o2hhk6l_1hPqZxl7-293" vertex="1">
          <mxGeometry width="140" height="40" as="geometry" />
        </mxCell>
        <mxCell id="XPd1o2hhk6l_1hPqZxl7-295" value="" style="shape=module;jettyWidth=10;jettyHeight=4;" parent="XPd1o2hhk6l_1hPqZxl7-294" vertex="1">
          <mxGeometry x="1" width="16" height="20" relative="1" as="geometry">
            <mxPoint x="-25" y="9" as="offset" />
          </mxGeometry>
        </mxCell>
        <mxCell id="XPd1o2hhk6l_1hPqZxl7-320" value="" style="endArrow=none;html=1;rounded=0;align=center;verticalAlign=top;endFill=0;labelBackgroundColor=none;endSize=2;exitX=0.906;exitY=-0.04;exitDx=0;exitDy=0;exitPerimeter=0;" parent="XPd1o2hhk6l_1hPqZxl7-1" target="XPd1o2hhk6l_1hPqZxl7-321" edge="1" source="XPd1o2hhk6l_1hPqZxl7-303">
          <mxGeometry relative="1" as="geometry">
            <mxPoint x="732.5" y="445" as="sourcePoint" />
            <Array as="points">
              <mxPoint x="310" y="215" />
            </Array>
          </mxGeometry>
        </mxCell>
        <mxCell id="XPd1o2hhk6l_1hPqZxl7-321" value="" style="shape=requiredInterface;html=1;fontSize=11;align=center;fillColor=none;points=[];aspect=fixed;resizable=0;verticalAlign=bottom;labelPosition=center;verticalLabelPosition=top;flipH=1;rotation=0;" parent="XPd1o2hhk6l_1hPqZxl7-1" vertex="1">
          <mxGeometry x="333.5" y="185" width="5" height="10" as="geometry" />
        </mxCell>
        <mxCell id="XPd1o2hhk6l_1hPqZxl7-322" value="" style="endArrow=none;html=1;rounded=0;align=center;verticalAlign=top;endFill=0;labelBackgroundColor=none;endSize=2;exitX=1;exitY=1;exitDx=0;exitDy=0;" parent="XPd1o2hhk6l_1hPqZxl7-1" target="XPd1o2hhk6l_1hPqZxl7-323" edge="1" source="XPd1o2hhk6l_1hPqZxl7-303">
          <mxGeometry relative="1" as="geometry">
            <mxPoint x="510.5" y="385" as="sourcePoint" />
          </mxGeometry>
        </mxCell>
        <mxCell id="XPd1o2hhk6l_1hPqZxl7-323" value="" style="shape=requiredInterface;html=1;fontSize=11;align=center;fillColor=none;points=[];aspect=fixed;resizable=0;verticalAlign=bottom;labelPosition=center;verticalLabelPosition=top;flipH=1;rotation=90;" parent="XPd1o2hhk6l_1hPqZxl7-1" vertex="1">
          <mxGeometry x="335" y="325" width="5" height="10" as="geometry" />
        </mxCell>
        <mxCell id="XPd1o2hhk6l_1hPqZxl7-324" value="" style="endArrow=none;html=1;rounded=0;align=center;verticalAlign=top;endFill=0;labelBackgroundColor=none;endSize=2;exitX=1;exitY=0.5;exitDx=0;exitDy=0;" parent="XPd1o2hhk6l_1hPqZxl7-1" target="XPd1o2hhk6l_1hPqZxl7-325" edge="1" source="XPd1o2hhk6l_1hPqZxl7-303">
          <mxGeometry relative="1" as="geometry">
            <mxPoint x="520.5" y="395" as="sourcePoint" />
            <Array as="points">
              <mxPoint x="340" y="240" />
            </Array>
          </mxGeometry>
        </mxCell>
        <mxCell id="XPd1o2hhk6l_1hPqZxl7-325" value="" style="shape=requiredInterface;html=1;fontSize=11;align=center;fillColor=none;points=[];aspect=fixed;resizable=0;verticalAlign=bottom;labelPosition=center;verticalLabelPosition=top;flipH=1;rotation=0;" parent="XPd1o2hhk6l_1hPqZxl7-1" vertex="1">
          <mxGeometry x="405" y="235" width="5" height="10" as="geometry" />
        </mxCell>
        <mxCell id="XPd1o2hhk6l_1hPqZxl7-326" value="" style="endArrow=none;html=1;rounded=0;align=center;verticalAlign=top;endFill=0;labelBackgroundColor=none;endSize=2;exitX=0;exitY=1;exitDx=0;exitDy=0;" parent="XPd1o2hhk6l_1hPqZxl7-1" target="XPd1o2hhk6l_1hPqZxl7-327" edge="1" source="XPd1o2hhk6l_1hPqZxl7-294">
          <mxGeometry relative="1" as="geometry">
            <mxPoint x="185.5" y="245" as="sourcePoint" />
          </mxGeometry>
        </mxCell>
        <mxCell id="XPd1o2hhk6l_1hPqZxl7-327" value="" style="shape=requiredInterface;html=1;fontSize=11;align=center;fillColor=none;points=[];aspect=fixed;resizable=0;verticalAlign=bottom;labelPosition=center;verticalLabelPosition=top;flipH=1;rotation=-180;" parent="XPd1o2hhk6l_1hPqZxl7-1" vertex="1">
          <mxGeometry x="340" y="226" width="5" height="10" as="geometry" />
        </mxCell>
        <mxCell id="XPd1o2hhk6l_1hPqZxl7-356" value="" style="group" parent="XPd1o2hhk6l_1hPqZxl7-1" vertex="1" connectable="0">
          <mxGeometry x="368.5" y="20" width="140" height="70" as="geometry" />
        </mxCell>
        <mxCell id="XPd1o2hhk6l_1hPqZxl7-290" value="" style="fontStyle=1;align=center;verticalAlign=top;childLayout=stackLayout;horizontal=1;horizontalStack=0;resizeParent=1;resizeParentMax=0;resizeLast=0;marginBottom=0;" parent="XPd1o2hhk6l_1hPqZxl7-356" vertex="1">
          <mxGeometry y="30" width="140" height="40" as="geometry" />
        </mxCell>
        <mxCell id="XPd1o2hhk6l_1hPqZxl7-291" value="&amp;lt;&amp;lt;component&amp;gt;&amp;gt;&lt;div&gt;Authentication&lt;/div&gt;" style="html=1;align=left;spacingLeft=4;verticalAlign=top;strokeColor=none;fillColor=none;whiteSpace=wrap;" parent="XPd1o2hhk6l_1hPqZxl7-290" vertex="1">
          <mxGeometry width="140" height="40" as="geometry" />
        </mxCell>
        <mxCell id="XPd1o2hhk6l_1hPqZxl7-292" value="" style="shape=module;jettyWidth=10;jettyHeight=4;" parent="XPd1o2hhk6l_1hPqZxl7-291" vertex="1">
          <mxGeometry x="1" width="16" height="20" relative="1" as="geometry">
            <mxPoint x="-25" y="9" as="offset" />
          </mxGeometry>
        </mxCell>
        <mxCell id="HH5l1YOxkUeo-8YhCR8G-6" value="" style="endArrow=none;html=1;rounded=0;align=center;verticalAlign=top;endFill=0;labelBackgroundColor=none;endSize=2;exitX=0;exitY=0;exitDx=0;exitDy=0;" edge="1" parent="XPd1o2hhk6l_1hPqZxl7-1" target="HH5l1YOxkUeo-8YhCR8G-7" source="XPd1o2hhk6l_1hPqZxl7-297">
          <mxGeometry relative="1" as="geometry">
            <mxPoint x="394" y="580" as="sourcePoint" />
          </mxGeometry>
        </mxCell>
        <mxCell id="HH5l1YOxkUeo-8YhCR8G-7" value="" style="ellipse;html=1;fontSize=11;align=center;fillColor=none;points=[];aspect=fixed;resizable=0;verticalAlign=bottom;labelPosition=center;verticalLabelPosition=top;flipH=1;" vertex="1" parent="XPd1o2hhk6l_1hPqZxl7-1">
          <mxGeometry x="550" y="346" width="8" height="8" as="geometry" />
        </mxCell>
        <mxCell id="HH5l1YOxkUeo-8YhCR8G-8" value="" style="endArrow=none;html=1;rounded=0;align=center;verticalAlign=top;endFill=0;labelBackgroundColor=none;endSize=2;exitX=0;exitY=1;exitDx=0;exitDy=0;" edge="1" parent="XPd1o2hhk6l_1hPqZxl7-1" target="HH5l1YOxkUeo-8YhCR8G-9" source="XPd1o2hhk6l_1hPqZxl7-300">
          <mxGeometry relative="1" as="geometry">
            <mxPoint x="404" y="590" as="sourcePoint" />
          </mxGeometry>
        </mxCell>
        <mxCell id="HH5l1YOxkUeo-8YhCR8G-9" value="" style="ellipse;html=1;fontSize=11;align=center;fillColor=none;points=[];aspect=fixed;resizable=0;verticalAlign=bottom;labelPosition=center;verticalLabelPosition=top;flipH=1;" vertex="1" parent="XPd1o2hhk6l_1hPqZxl7-1">
          <mxGeometry x="537" y="321" width="8" height="8" as="geometry" />
        </mxCell>
        <mxCell id="HH5l1YOxkUeo-8YhCR8G-10" value="" style="endArrow=none;html=1;rounded=0;align=center;verticalAlign=top;endFill=0;labelBackgroundColor=none;endSize=2;exitX=0.75;exitY=1;exitDx=0;exitDy=0;" edge="1" parent="XPd1o2hhk6l_1hPqZxl7-1" target="HH5l1YOxkUeo-8YhCR8G-11" source="XPd1o2hhk6l_1hPqZxl7-294">
          <mxGeometry relative="1" as="geometry">
            <mxPoint x="414" y="600" as="sourcePoint" />
          </mxGeometry>
        </mxCell>
        <mxCell id="HH5l1YOxkUeo-8YhCR8G-11" value="" style="ellipse;html=1;fontSize=11;align=center;fillColor=none;points=[];aspect=fixed;resizable=0;verticalAlign=bottom;labelPosition=center;verticalLabelPosition=top;flipH=1;" vertex="1" parent="XPd1o2hhk6l_1hPqZxl7-1">
          <mxGeometry x="468.5" y="247" width="8" height="8" as="geometry" />
        </mxCell>
        <mxCell id="HH5l1YOxkUeo-8YhCR8G-12" value="" style="endArrow=none;html=1;rounded=0;align=center;verticalAlign=top;endFill=0;labelBackgroundColor=none;endSize=2;exitX=1;exitY=0.75;exitDx=0;exitDy=0;" edge="1" parent="XPd1o2hhk6l_1hPqZxl7-1" target="HH5l1YOxkUeo-8YhCR8G-13" source="XPd1o2hhk6l_1hPqZxl7-294">
          <mxGeometry relative="1" as="geometry">
            <mxPoint x="424" y="610" as="sourcePoint" />
          </mxGeometry>
        </mxCell>
        <mxCell id="HH5l1YOxkUeo-8YhCR8G-13" value="" style="ellipse;html=1;fontSize=11;align=center;fillColor=none;points=[];aspect=fixed;resizable=0;verticalAlign=bottom;labelPosition=center;verticalLabelPosition=top;flipH=1;" vertex="1" parent="XPd1o2hhk6l_1hPqZxl7-1">
          <mxGeometry x="537" y="204" width="8" height="8" as="geometry" />
        </mxCell>
        <mxCell id="HH5l1YOxkUeo-8YhCR8G-14" value="" style="endArrow=none;html=1;rounded=0;align=center;verticalAlign=top;endFill=0;labelBackgroundColor=none;endSize=2;exitX=1;exitY=0.75;exitDx=0;exitDy=0;" edge="1" parent="XPd1o2hhk6l_1hPqZxl7-1" target="HH5l1YOxkUeo-8YhCR8G-15" source="XPd1o2hhk6l_1hPqZxl7-303">
          <mxGeometry relative="1" as="geometry">
            <mxPoint x="434" y="620" as="sourcePoint" />
          </mxGeometry>
        </mxCell>
        <mxCell id="HH5l1YOxkUeo-8YhCR8G-15" value="" style="ellipse;html=1;fontSize=11;align=center;fillColor=none;points=[];aspect=fixed;resizable=0;verticalAlign=bottom;labelPosition=center;verticalLabelPosition=top;flipH=1;" vertex="1" parent="XPd1o2hhk6l_1hPqZxl7-1">
          <mxGeometry x="428" y="296" width="8" height="8" as="geometry" />
        </mxCell>
        <mxCell id="HH5l1YOxkUeo-8YhCR8G-16" value="" style="endArrow=none;html=1;rounded=0;align=center;verticalAlign=top;endFill=0;labelBackgroundColor=none;endSize=2;exitX=0;exitY=0.75;exitDx=0;exitDy=0;" edge="1" parent="XPd1o2hhk6l_1hPqZxl7-1" target="HH5l1YOxkUeo-8YhCR8G-17" source="XPd1o2hhk6l_1hPqZxl7-294">
          <mxGeometry relative="1" as="geometry">
            <mxPoint x="444" y="630" as="sourcePoint" />
          </mxGeometry>
        </mxCell>
        <mxCell id="HH5l1YOxkUeo-8YhCR8G-17" value="" style="ellipse;html=1;fontSize=11;align=center;fillColor=none;points=[];aspect=fixed;resizable=0;verticalAlign=bottom;labelPosition=center;verticalLabelPosition=top;flipH=1;" vertex="1" parent="XPd1o2hhk6l_1hPqZxl7-1">
          <mxGeometry x="338.5" y="186" width="8" height="8" as="geometry" />
        </mxCell>
        <mxCell id="HH5l1YOxkUeo-8YhCR8G-18" value="" style="endArrow=none;html=1;rounded=0;align=center;verticalAlign=top;endFill=0;labelBackgroundColor=none;endSize=2;exitX=0;exitY=0;exitDx=0;exitDy=0;" edge="1" parent="XPd1o2hhk6l_1hPqZxl7-1" target="HH5l1YOxkUeo-8YhCR8G-19" source="XPd1o2hhk6l_1hPqZxl7-309">
          <mxGeometry relative="1" as="geometry">
            <mxPoint x="454" y="640" as="sourcePoint" />
          </mxGeometry>
        </mxCell>
        <mxCell id="HH5l1YOxkUeo-8YhCR8G-19" value="" style="ellipse;html=1;fontSize=11;align=center;fillColor=none;points=[];aspect=fixed;resizable=0;verticalAlign=bottom;labelPosition=center;verticalLabelPosition=top;flipH=1;" vertex="1" parent="XPd1o2hhk6l_1hPqZxl7-1">
          <mxGeometry x="335" y="335" width="8" height="8" as="geometry" />
        </mxCell>
        <mxCell id="HH5l1YOxkUeo-8YhCR8G-22" value="" style="endArrow=none;html=1;rounded=0;align=center;verticalAlign=top;endFill=0;labelBackgroundColor=none;endSize=2;exitX=1;exitY=0;exitDx=0;exitDy=0;" edge="1" parent="XPd1o2hhk6l_1hPqZxl7-1" target="HH5l1YOxkUeo-8YhCR8G-23" source="XPd1o2hhk6l_1hPqZxl7-303">
          <mxGeometry relative="1" as="geometry">
            <mxPoint x="474" y="660" as="sourcePoint" />
          </mxGeometry>
        </mxCell>
        <mxCell id="HH5l1YOxkUeo-8YhCR8G-23" value="" style="ellipse;html=1;fontSize=11;align=center;fillColor=none;points=[];aspect=fixed;resizable=0;verticalAlign=bottom;labelPosition=center;verticalLabelPosition=top;flipH=1;" vertex="1" parent="XPd1o2hhk6l_1hPqZxl7-1">
          <mxGeometry x="332" y="227" width="8" height="8" as="geometry" />
        </mxCell>
        <mxCell id="HH5l1YOxkUeo-8YhCR8G-24" value="" style="endArrow=none;html=1;rounded=0;align=center;verticalAlign=top;endFill=0;labelBackgroundColor=none;endSize=2;exitX=0;exitY=0.5;exitDx=0;exitDy=0;" edge="1" parent="XPd1o2hhk6l_1hPqZxl7-1" target="HH5l1YOxkUeo-8YhCR8G-25" source="XPd1o2hhk6l_1hPqZxl7-300">
          <mxGeometry relative="1" as="geometry">
            <mxPoint x="484" y="670" as="sourcePoint" />
            <Array as="points">
              <mxPoint x="530" y="239" />
            </Array>
          </mxGeometry>
        </mxCell>
        <mxCell id="HH5l1YOxkUeo-8YhCR8G-25" value="" style="ellipse;html=1;fontSize=11;align=center;fillColor=none;points=[];aspect=fixed;resizable=0;verticalAlign=bottom;labelPosition=center;verticalLabelPosition=top;flipH=1;" vertex="1" parent="XPd1o2hhk6l_1hPqZxl7-1">
          <mxGeometry x="412" y="235" width="8" height="8" as="geometry" />
        </mxCell>
        <mxCell id="XPd1o2hhk6l_1hPqZxl7-358" value="" style="group" parent="XPd1o2hhk6l_1hPqZxl7-1" vertex="1" connectable="0">
          <mxGeometry x="180" y="235" width="140" height="70" as="geometry" />
        </mxCell>
        <mxCell id="XPd1o2hhk6l_1hPqZxl7-302" value="" style="fontStyle=1;align=center;verticalAlign=top;childLayout=stackLayout;horizontal=1;horizontalStack=0;resizeParent=1;resizeParentMax=0;resizeLast=0;marginBottom=0;" parent="XPd1o2hhk6l_1hPqZxl7-358" vertex="1">
          <mxGeometry y="30" width="140" height="40" as="geometry" />
        </mxCell>
        <mxCell id="XPd1o2hhk6l_1hPqZxl7-303" value="&amp;lt;&amp;lt;component&amp;gt;&amp;gt;&lt;div&gt;Veranstaltung&lt;/div&gt;" style="html=1;align=left;spacingLeft=4;verticalAlign=top;strokeColor=none;fillColor=none;whiteSpace=wrap;" parent="XPd1o2hhk6l_1hPqZxl7-302" vertex="1">
          <mxGeometry width="140" height="40" as="geometry" />
        </mxCell>
        <mxCell id="XPd1o2hhk6l_1hPqZxl7-304" value="" style="shape=module;jettyWidth=10;jettyHeight=4;" parent="XPd1o2hhk6l_1hPqZxl7-303" vertex="1">
          <mxGeometry x="1" width="16" height="20" relative="1" as="geometry">
            <mxPoint x="-25" y="9" as="offset" />
          </mxGeometry>
        </mxCell>
        <mxCell id="HH5l1YOxkUeo-8YhCR8G-2" value="" style="group" vertex="1" connectable="0" parent="XPd1o2hhk6l_1hPqZxl7-1">
          <mxGeometry x="378" y="315" width="140" height="70" as="geometry" />
        </mxCell>
        <mxCell id="XPd1o2hhk6l_1hPqZxl7-308" value="" style="fontStyle=1;align=center;verticalAlign=top;childLayout=stackLayout;horizontal=1;horizontalStack=0;resizeParent=1;resizeParentMax=0;resizeLast=0;marginBottom=0;" parent="HH5l1YOxkUeo-8YhCR8G-2" vertex="1">
          <mxGeometry y="30" width="140" height="40" as="geometry" />
        </mxCell>
        <mxCell id="XPd1o2hhk6l_1hPqZxl7-309" value="&amp;lt;&amp;lt;component&amp;gt;&amp;gt;&lt;div&gt;Termin&lt;/div&gt;" style="html=1;align=left;spacingLeft=4;verticalAlign=top;strokeColor=none;fillColor=none;whiteSpace=wrap;" parent="XPd1o2hhk6l_1hPqZxl7-308" vertex="1">
          <mxGeometry width="140" height="40" as="geometry" />
        </mxCell>
        <mxCell id="XPd1o2hhk6l_1hPqZxl7-310" value="" style="shape=module;jettyWidth=10;jettyHeight=4;" parent="XPd1o2hhk6l_1hPqZxl7-309" vertex="1">
          <mxGeometry x="1" width="16" height="20" relative="1" as="geometry">
            <mxPoint x="-25" y="9" as="offset" />
          </mxGeometry>
        </mxCell>
        <mxCell id="XPd1o2hhk6l_1hPqZxl7-330" value="" style="group" parent="XPd1o2hhk6l_1hPqZxl7-1" vertex="1" connectable="0">
          <mxGeometry x="550" y="235" width="140" height="70" as="geometry" />
        </mxCell>
        <mxCell id="XPd1o2hhk6l_1hPqZxl7-299" value="" style="fontStyle=1;align=center;verticalAlign=top;childLayout=stackLayout;horizontal=1;horizontalStack=0;resizeParent=1;resizeParentMax=0;resizeLast=0;marginBottom=0;" parent="XPd1o2hhk6l_1hPqZxl7-330" vertex="1">
          <mxGeometry y="30" width="140" height="40" as="geometry" />
        </mxCell>
        <mxCell id="XPd1o2hhk6l_1hPqZxl7-300" value="&amp;lt;&amp;lt;component&amp;gt;&amp;gt;&lt;div&gt;Module&lt;/div&gt;" style="html=1;align=left;spacingLeft=4;verticalAlign=top;strokeColor=none;fillColor=none;whiteSpace=wrap;" parent="XPd1o2hhk6l_1hPqZxl7-299" vertex="1">
          <mxGeometry width="140" height="40" as="geometry" />
        </mxCell>
        <mxCell id="XPd1o2hhk6l_1hPqZxl7-301" value="" style="shape=module;jettyWidth=10;jettyHeight=4;" parent="XPd1o2hhk6l_1hPqZxl7-300" vertex="1">
          <mxGeometry x="1" width="16" height="20" relative="1" as="geometry">
            <mxPoint x="-25" y="9" as="offset" />
          </mxGeometry>
        </mxCell>
        <mxCell id="HH5l1YOxkUeo-8YhCR8G-20" value="" style="endArrow=none;html=1;rounded=0;align=center;verticalAlign=top;endFill=0;labelBackgroundColor=none;endSize=2;exitX=0;exitY=0;exitDx=0;exitDy=0;" edge="1" parent="XPd1o2hhk6l_1hPqZxl7-1" target="HH5l1YOxkUeo-8YhCR8G-21" source="XPd1o2hhk6l_1hPqZxl7-300">
          <mxGeometry relative="1" as="geometry">
            <mxPoint x="1474" y="484.5" as="sourcePoint" />
          </mxGeometry>
        </mxCell>
        <mxCell id="HH5l1YOxkUeo-8YhCR8G-29" value="" style="endArrow=none;html=1;rounded=0;align=center;verticalAlign=top;endFill=0;labelBackgroundColor=none;endSize=2;exitX=0;exitY=0.75;exitDx=0;exitDy=0;" edge="1" parent="XPd1o2hhk6l_1hPqZxl7-1" target="HH5l1YOxkUeo-8YhCR8G-30" source="XPd1o2hhk6l_1hPqZxl7-300">
          <mxGeometry relative="1" as="geometry">
            <mxPoint x="742.5" y="455" as="sourcePoint" />
          </mxGeometry>
        </mxCell>
        <mxCell id="HH5l1YOxkUeo-8YhCR8G-30" value="" style="shape=requiredInterface;html=1;fontSize=11;align=center;fillColor=none;points=[];aspect=fixed;resizable=0;verticalAlign=bottom;labelPosition=center;verticalLabelPosition=top;flipH=1;rotation=-180;" vertex="1" parent="XPd1o2hhk6l_1hPqZxl7-1">
          <mxGeometry x="436" y="295" width="5" height="10" as="geometry" />
        </mxCell>
        <mxCell id="HH5l1YOxkUeo-8YhCR8G-31" value="" style="endArrow=none;html=1;rounded=0;align=center;verticalAlign=top;endFill=0;labelBackgroundColor=none;endSize=2;exitX=1;exitY=0;exitDx=0;exitDy=0;" edge="1" parent="XPd1o2hhk6l_1hPqZxl7-1" target="HH5l1YOxkUeo-8YhCR8G-32" source="XPd1o2hhk6l_1hPqZxl7-309">
          <mxGeometry relative="1" as="geometry">
            <mxPoint x="752.5" y="465" as="sourcePoint" />
          </mxGeometry>
        </mxCell>
        <mxCell id="HH5l1YOxkUeo-8YhCR8G-32" value="" style="shape=requiredInterface;html=1;fontSize=11;align=center;fillColor=none;points=[];aspect=fixed;resizable=0;verticalAlign=bottom;labelPosition=center;verticalLabelPosition=top;flipH=1;rotation=-90;" vertex="1" parent="XPd1o2hhk6l_1hPqZxl7-1">
          <mxGeometry x="538.5" y="329" width="5" height="10" as="geometry" />
        </mxCell>
        <mxCell id="HH5l1YOxkUeo-8YhCR8G-33" value="" style="endArrow=none;html=1;rounded=0;align=center;verticalAlign=top;endFill=0;labelBackgroundColor=none;endSize=2;exitX=0;exitY=1;exitDx=0;exitDy=0;" edge="1" parent="XPd1o2hhk6l_1hPqZxl7-1" target="HH5l1YOxkUeo-8YhCR8G-34" source="XPd1o2hhk6l_1hPqZxl7-309">
          <mxGeometry relative="1" as="geometry">
            <mxPoint x="762.5" y="475" as="sourcePoint" />
          </mxGeometry>
        </mxCell>
        <mxCell id="HH5l1YOxkUeo-8YhCR8G-34" value="" style="shape=requiredInterface;html=1;fontSize=11;align=center;fillColor=none;points=[];aspect=fixed;resizable=0;verticalAlign=bottom;labelPosition=center;verticalLabelPosition=top;flipH=1;rotation=136;" vertex="1" parent="XPd1o2hhk6l_1hPqZxl7-1">
          <mxGeometry x="346.5" y="384" width="5" height="10" as="geometry" />
        </mxCell>
        <mxCell id="HH5l1YOxkUeo-8YhCR8G-35" value="" style="endArrow=none;html=1;rounded=0;align=center;verticalAlign=top;endFill=0;labelBackgroundColor=none;endSize=2;exitX=1;exitY=0.5;exitDx=0;exitDy=0;" edge="1" parent="XPd1o2hhk6l_1hPqZxl7-1" target="HH5l1YOxkUeo-8YhCR8G-36" source="XPd1o2hhk6l_1hPqZxl7-306">
          <mxGeometry relative="1" as="geometry">
            <mxPoint x="772.5" y="485" as="sourcePoint" />
          </mxGeometry>
        </mxCell>
        <mxCell id="HH5l1YOxkUeo-8YhCR8G-36" value="" style="shape=requiredInterface;html=1;fontSize=11;align=center;fillColor=none;points=[];aspect=fixed;resizable=0;verticalAlign=bottom;labelPosition=center;verticalLabelPosition=top;flipH=1;rotation=0;" vertex="1" parent="XPd1o2hhk6l_1hPqZxl7-1">
          <mxGeometry x="351.5" y="400.5" width="5" height="10" as="geometry" />
        </mxCell>
        <mxCell id="HH5l1YOxkUeo-8YhCR8G-39" value="" style="endArrow=none;html=1;rounded=0;align=center;verticalAlign=top;endFill=0;labelBackgroundColor=none;endSize=2;exitX=0.75;exitY=1;exitDx=0;exitDy=0;" edge="1" parent="XPd1o2hhk6l_1hPqZxl7-1" target="HH5l1YOxkUeo-8YhCR8G-40" source="XPd1o2hhk6l_1hPqZxl7-306">
          <mxGeometry relative="1" as="geometry">
            <mxPoint x="792.5" y="505" as="sourcePoint" />
          </mxGeometry>
        </mxCell>
        <mxCell id="HH5l1YOxkUeo-8YhCR8G-40" value="" style="shape=requiredInterface;html=1;fontSize=11;align=center;fillColor=none;points=[];aspect=fixed;resizable=0;verticalAlign=bottom;labelPosition=center;verticalLabelPosition=top;flipH=1;rotation=90;" vertex="1" parent="XPd1o2hhk6l_1hPqZxl7-1">
          <mxGeometry x="280" y="445" width="5" height="10" as="geometry" />
        </mxCell>
        <mxCell id="HH5l1YOxkUeo-8YhCR8G-41" value="" style="endArrow=none;html=1;rounded=0;align=center;verticalAlign=top;endFill=0;labelBackgroundColor=none;endSize=2;exitX=1;exitY=0;exitDx=0;exitDy=0;" edge="1" parent="XPd1o2hhk6l_1hPqZxl7-1" target="HH5l1YOxkUeo-8YhCR8G-42" source="XPd1o2hhk6l_1hPqZxl7-306">
          <mxGeometry relative="1" as="geometry">
            <mxPoint x="802.5" y="515" as="sourcePoint" />
          </mxGeometry>
        </mxCell>
        <mxCell id="HH5l1YOxkUeo-8YhCR8G-42" value="" style="shape=requiredInterface;html=1;fontSize=11;align=center;fillColor=none;points=[];aspect=fixed;resizable=0;verticalAlign=bottom;labelPosition=center;verticalLabelPosition=top;flipH=1;rotation=-90;" vertex="1" parent="XPd1o2hhk6l_1hPqZxl7-1">
          <mxGeometry x="300" y="336" width="5" height="10" as="geometry" />
        </mxCell>
        <mxCell id="HH5l1YOxkUeo-8YhCR8G-43" value="" style="endArrow=none;html=1;rounded=0;align=center;verticalAlign=top;endFill=0;labelBackgroundColor=none;endSize=2;exitX=1;exitY=0.25;exitDx=0;exitDy=0;" edge="1" parent="XPd1o2hhk6l_1hPqZxl7-1" target="HH5l1YOxkUeo-8YhCR8G-44" source="XPd1o2hhk6l_1hPqZxl7-309">
          <mxGeometry relative="1" as="geometry">
            <mxPoint x="812.5" y="525" as="sourcePoint" />
          </mxGeometry>
        </mxCell>
        <mxCell id="HH5l1YOxkUeo-8YhCR8G-44" value="" style="shape=requiredInterface;html=1;fontSize=11;align=center;fillColor=none;points=[];aspect=fixed;resizable=0;verticalAlign=bottom;labelPosition=center;verticalLabelPosition=top;flipH=1;rotation=0;" vertex="1" parent="XPd1o2hhk6l_1hPqZxl7-1">
          <mxGeometry x="545" y="345" width="5" height="10" as="geometry" />
        </mxCell>
        <mxCell id="HH5l1YOxkUeo-8YhCR8G-45" value="" style="endArrow=none;html=1;rounded=0;align=center;verticalAlign=top;endFill=0;labelBackgroundColor=none;endSize=2;exitX=0.846;exitY=-0.06;exitDx=0;exitDy=0;exitPerimeter=0;" edge="1" parent="XPd1o2hhk6l_1hPqZxl7-1" target="HH5l1YOxkUeo-8YhCR8G-46" source="XPd1o2hhk6l_1hPqZxl7-309">
          <mxGeometry relative="1" as="geometry">
            <mxPoint x="822.5" y="535" as="sourcePoint" />
          </mxGeometry>
        </mxCell>
        <mxCell id="HH5l1YOxkUeo-8YhCR8G-46" value="" style="shape=requiredInterface;html=1;fontSize=11;align=center;fillColor=none;points=[];aspect=fixed;resizable=0;verticalAlign=bottom;labelPosition=center;verticalLabelPosition=top;flipH=1;rotation=-90;" vertex="1" parent="XPd1o2hhk6l_1hPqZxl7-1">
          <mxGeometry x="470" y="255" width="5" height="10" as="geometry" />
        </mxCell>
        <mxCell id="HH5l1YOxkUeo-8YhCR8G-47" value="" style="endArrow=none;html=1;rounded=0;align=center;verticalAlign=top;endFill=0;labelBackgroundColor=none;endSize=2;exitX=0.109;exitY=0.02;exitDx=0;exitDy=0;exitPerimeter=0;" edge="1" parent="XPd1o2hhk6l_1hPqZxl7-1" target="HH5l1YOxkUeo-8YhCR8G-48" source="XPd1o2hhk6l_1hPqZxl7-300">
          <mxGeometry relative="1" as="geometry">
            <mxPoint x="832.5" y="545" as="sourcePoint" />
          </mxGeometry>
        </mxCell>
        <mxCell id="HH5l1YOxkUeo-8YhCR8G-48" value="" style="shape=requiredInterface;html=1;fontSize=11;align=center;fillColor=none;points=[];aspect=fixed;resizable=0;verticalAlign=bottom;labelPosition=center;verticalLabelPosition=top;flipH=1;rotation=-179;" vertex="1" parent="XPd1o2hhk6l_1hPqZxl7-1">
          <mxGeometry x="545" y="203" width="5" height="10" as="geometry" />
        </mxCell>
        <mxCell id="XPd1o2hhk6l_1hPqZxl7-329" value="" style="shape=requiredInterface;html=1;fontSize=11;align=center;fillColor=none;points=[];aspect=fixed;resizable=0;verticalAlign=bottom;labelPosition=center;verticalLabelPosition=top;flipH=1;rotation=0;" parent="XPd1o2hhk6l_1hPqZxl7-1" vertex="1">
          <mxGeometry x="521" y="215" width="5" height="10" as="geometry" />
        </mxCell>
        <mxCell id="HH5l1YOxkUeo-8YhCR8G-21" value="" style="ellipse;html=1;fontSize=11;align=center;fillColor=none;points=[];aspect=fixed;resizable=0;verticalAlign=bottom;labelPosition=center;verticalLabelPosition=top;flipH=1;" vertex="1" parent="XPd1o2hhk6l_1hPqZxl7-1">
          <mxGeometry x="526" y="216" width="8" height="8" as="geometry" />
        </mxCell>
        <mxCell id="XPd1o2hhk6l_1hPqZxl7-328" value="" style="endArrow=none;html=1;rounded=0;align=center;verticalAlign=top;endFill=0;labelBackgroundColor=none;endSize=2;exitX=1;exitY=1;exitDx=0;exitDy=0;" parent="XPd1o2hhk6l_1hPqZxl7-1" target="XPd1o2hhk6l_1hPqZxl7-329" edge="1" source="XPd1o2hhk6l_1hPqZxl7-294">
          <mxGeometry relative="1" as="geometry">
            <mxPoint x="1205.5" y="88.5" as="sourcePoint" />
          </mxGeometry>
        </mxCell>
        <mxCell id="HH5l1YOxkUeo-8YhCR8G-3" value="" style="group" vertex="1" connectable="0" parent="XPd1o2hhk6l_1hPqZxl7-1">
          <mxGeometry x="600" y="315" width="140" height="69" as="geometry" />
        </mxCell>
        <mxCell id="XPd1o2hhk6l_1hPqZxl7-296" value="" style="fontStyle=1;align=center;verticalAlign=top;childLayout=stackLayout;horizontal=1;horizontalStack=0;resizeParent=1;resizeParentMax=0;resizeLast=0;marginBottom=0;" parent="HH5l1YOxkUeo-8YhCR8G-3" vertex="1">
          <mxGeometry y="29" width="140" height="40" as="geometry" />
        </mxCell>
        <mxCell id="XPd1o2hhk6l_1hPqZxl7-297" value="&amp;lt;&amp;lt;component&amp;gt;&amp;gt;&lt;div&gt;Absence&lt;/div&gt;" style="html=1;align=left;spacingLeft=4;verticalAlign=top;strokeColor=none;fillColor=none;whiteSpace=wrap;" parent="XPd1o2hhk6l_1hPqZxl7-296" vertex="1">
          <mxGeometry width="140" height="40" as="geometry" />
        </mxCell>
        <mxCell id="XPd1o2hhk6l_1hPqZxl7-298" value="" style="shape=module;jettyWidth=10;jettyHeight=4;" parent="XPd1o2hhk6l_1hPqZxl7-297" vertex="1">
          <mxGeometry x="1" width="16" height="20" relative="1" as="geometry">
            <mxPoint x="-25" y="9" as="offset" />
          </mxGeometry>
        </mxCell>
        <mxCell id="HH5l1YOxkUeo-8YhCR8G-51" value="" style="endArrow=none;html=1;rounded=0;align=center;verticalAlign=top;endFill=0;labelBackgroundColor=none;endSize=2;exitX=0.25;exitY=0;exitDx=0;exitDy=0;" edge="1" parent="XPd1o2hhk6l_1hPqZxl7-1" target="HH5l1YOxkUeo-8YhCR8G-52" source="HH5l1YOxkUeo-8YhCR8G-85">
          <mxGeometry relative="1" as="geometry">
            <mxPoint x="384" y="570" as="sourcePoint" />
          </mxGeometry>
        </mxCell>
        <mxCell id="HH5l1YOxkUeo-8YhCR8G-52" value="" style="ellipse;html=1;fontSize=11;align=center;fillColor=none;points=[];aspect=fixed;resizable=0;verticalAlign=bottom;labelPosition=center;verticalLabelPosition=top;flipH=1;" vertex="1" parent="XPd1o2hhk6l_1hPqZxl7-1">
          <mxGeometry x="99.5" y="428" width="8" height="8" as="geometry" />
        </mxCell>
        <mxCell id="HH5l1YOxkUeo-8YhCR8G-53" value="" style="endArrow=none;html=1;rounded=0;align=center;verticalAlign=top;endFill=0;labelBackgroundColor=none;endSize=2;exitX=0.75;exitY=0;exitDx=0;exitDy=0;" edge="1" parent="XPd1o2hhk6l_1hPqZxl7-1" target="HH5l1YOxkUeo-8YhCR8G-54" source="HH5l1YOxkUeo-8YhCR8G-66">
          <mxGeometry relative="1" as="geometry">
            <mxPoint x="394" y="580" as="sourcePoint" />
          </mxGeometry>
        </mxCell>
        <mxCell id="HH5l1YOxkUeo-8YhCR8G-54" value="" style="ellipse;html=1;fontSize=11;align=center;fillColor=none;points=[];aspect=fixed;resizable=0;verticalAlign=bottom;labelPosition=center;verticalLabelPosition=top;flipH=1;" vertex="1" parent="XPd1o2hhk6l_1hPqZxl7-1">
          <mxGeometry x="278.5" y="455" width="8" height="8" as="geometry" />
        </mxCell>
        <mxCell id="HH5l1YOxkUeo-8YhCR8G-55" value="" style="endArrow=none;html=1;rounded=0;align=center;verticalAlign=top;endFill=0;labelBackgroundColor=none;endSize=2;exitX=0.25;exitY=1;exitDx=0;exitDy=0;" edge="1" parent="XPd1o2hhk6l_1hPqZxl7-1" target="HH5l1YOxkUeo-8YhCR8G-56" source="XPd1o2hhk6l_1hPqZxl7-309">
          <mxGeometry relative="1" as="geometry">
            <mxPoint x="404" y="590" as="sourcePoint" />
          </mxGeometry>
        </mxCell>
        <mxCell id="HH5l1YOxkUeo-8YhCR8G-56" value="" style="ellipse;html=1;fontSize=11;align=center;fillColor=none;points=[];aspect=fixed;resizable=0;verticalAlign=bottom;labelPosition=center;verticalLabelPosition=top;flipH=1;" vertex="1" parent="XPd1o2hhk6l_1hPqZxl7-1">
          <mxGeometry x="356.5" y="401.5" width="8" height="8" as="geometry" />
        </mxCell>
        <mxCell id="HH5l1YOxkUeo-8YhCR8G-57" value="" style="endArrow=none;html=1;rounded=0;align=center;verticalAlign=top;endFill=0;labelBackgroundColor=none;endSize=2;exitX=0.75;exitY=1;exitDx=0;exitDy=0;" edge="1" parent="XPd1o2hhk6l_1hPqZxl7-1" target="HH5l1YOxkUeo-8YhCR8G-58" source="XPd1o2hhk6l_1hPqZxl7-303">
          <mxGeometry relative="1" as="geometry">
            <mxPoint x="414" y="600" as="sourcePoint" />
          </mxGeometry>
        </mxCell>
        <mxCell id="HH5l1YOxkUeo-8YhCR8G-58" value="" style="ellipse;html=1;fontSize=11;align=center;fillColor=none;points=[];aspect=fixed;resizable=0;verticalAlign=bottom;labelPosition=center;verticalLabelPosition=top;flipH=1;" vertex="1" parent="XPd1o2hhk6l_1hPqZxl7-1">
          <mxGeometry x="298.5" y="331" width="8" height="8" as="geometry" />
        </mxCell>
        <mxCell id="HH5l1YOxkUeo-8YhCR8G-59" value="" style="endArrow=none;html=1;rounded=0;align=center;verticalAlign=top;endFill=0;labelBackgroundColor=none;endSize=2;exitX=1;exitY=0.25;exitDx=0;exitDy=0;" edge="1" parent="XPd1o2hhk6l_1hPqZxl7-1" target="HH5l1YOxkUeo-8YhCR8G-60" source="XPd1o2hhk6l_1hPqZxl7-306">
          <mxGeometry relative="1" as="geometry">
            <mxPoint x="424" y="610" as="sourcePoint" />
          </mxGeometry>
        </mxCell>
        <mxCell id="HH5l1YOxkUeo-8YhCR8G-60" value="" style="ellipse;html=1;fontSize=11;align=center;fillColor=none;points=[];aspect=fixed;resizable=0;verticalAlign=bottom;labelPosition=center;verticalLabelPosition=top;flipH=1;" vertex="1" parent="XPd1o2hhk6l_1hPqZxl7-1">
          <mxGeometry x="340" y="389" width="8" height="8" as="geometry" />
        </mxCell>
        <mxCell id="XPd1o2hhk6l_1hPqZxl7-305" value="" style="fontStyle=1;align=center;verticalAlign=top;childLayout=stackLayout;horizontal=1;horizontalStack=0;resizeParent=1;resizeParentMax=0;resizeLast=0;marginBottom=0;" parent="XPd1o2hhk6l_1hPqZxl7-1" vertex="1">
          <mxGeometry x="180" y="385.5" width="140" height="40" as="geometry" />
        </mxCell>
        <mxCell id="XPd1o2hhk6l_1hPqZxl7-306" value="&amp;lt;&amp;lt;component&amp;gt;&amp;gt;&lt;div&gt;TerminTemplate&lt;/div&gt;" style="html=1;align=left;spacingLeft=4;verticalAlign=top;strokeColor=none;fillColor=none;whiteSpace=wrap;" parent="XPd1o2hhk6l_1hPqZxl7-305" vertex="1">
          <mxGeometry width="140" height="40" as="geometry" />
        </mxCell>
        <mxCell id="XPd1o2hhk6l_1hPqZxl7-307" value="" style="shape=module;jettyWidth=10;jettyHeight=4;" parent="XPd1o2hhk6l_1hPqZxl7-306" vertex="1">
          <mxGeometry x="1" width="16" height="20" relative="1" as="geometry">
            <mxPoint x="-25" y="9" as="offset" />
          </mxGeometry>
        </mxCell>
        <mxCell id="HH5l1YOxkUeo-8YhCR8G-65" value="" style="fontStyle=1;align=center;verticalAlign=top;childLayout=stackLayout;horizontal=1;horizontalStack=0;resizeParent=1;resizeParentMax=0;resizeLast=0;marginBottom=0;" vertex="1" parent="XPd1o2hhk6l_1hPqZxl7-1">
          <mxGeometry x="180" y="493" width="140" height="40" as="geometry" />
        </mxCell>
        <mxCell id="HH5l1YOxkUeo-8YhCR8G-66" value="&amp;lt;&amp;lt;component&amp;gt;&amp;gt;&lt;div&gt;Mail&lt;/div&gt;" style="html=1;align=left;spacingLeft=4;verticalAlign=top;strokeColor=none;fillColor=none;whiteSpace=wrap;" vertex="1" parent="HH5l1YOxkUeo-8YhCR8G-65">
          <mxGeometry width="140" height="40" as="geometry" />
        </mxCell>
        <mxCell id="HH5l1YOxkUeo-8YhCR8G-67" value="" style="shape=module;jettyWidth=10;jettyHeight=4;" vertex="1" parent="HH5l1YOxkUeo-8YhCR8G-66">
          <mxGeometry x="1" width="16" height="20" relative="1" as="geometry">
            <mxPoint x="-25" y="9" as="offset" />
          </mxGeometry>
        </mxCell>
        <mxCell id="HH5l1YOxkUeo-8YhCR8G-72" value="" style="endArrow=none;html=1;rounded=0;align=center;verticalAlign=top;endFill=0;labelBackgroundColor=none;endSize=2;exitX=0.25;exitY=1;exitDx=0;exitDy=0;" edge="1" parent="XPd1o2hhk6l_1hPqZxl7-1" target="HH5l1YOxkUeo-8YhCR8G-73" source="XPd1o2hhk6l_1hPqZxl7-297">
          <mxGeometry relative="1" as="geometry">
            <mxPoint x="812.5" y="525" as="sourcePoint" />
          </mxGeometry>
        </mxCell>
        <mxCell id="HH5l1YOxkUeo-8YhCR8G-73" value="" style="shape=requiredInterface;html=1;fontSize=11;align=center;fillColor=none;points=[];aspect=fixed;resizable=0;verticalAlign=bottom;labelPosition=center;verticalLabelPosition=top;flipH=1;rotation=90;" vertex="1" parent="XPd1o2hhk6l_1hPqZxl7-1">
          <mxGeometry x="521" y="453" width="5" height="10" as="geometry" />
        </mxCell>
        <mxCell id="HH5l1YOxkUeo-8YhCR8G-74" value="" style="endArrow=none;html=1;rounded=0;align=center;verticalAlign=top;endFill=0;labelBackgroundColor=none;endSize=2;exitX=0;exitY=0.75;exitDx=0;exitDy=0;" edge="1" parent="XPd1o2hhk6l_1hPqZxl7-1" target="HH5l1YOxkUeo-8YhCR8G-75" source="XPd1o2hhk6l_1hPqZxl7-297">
          <mxGeometry relative="1" as="geometry">
            <mxPoint x="822.5" y="535" as="sourcePoint" />
          </mxGeometry>
        </mxCell>
        <mxCell id="HH5l1YOxkUeo-8YhCR8G-75" value="" style="shape=requiredInterface;html=1;fontSize=11;align=center;fillColor=none;points=[];aspect=fixed;resizable=0;verticalAlign=bottom;labelPosition=center;verticalLabelPosition=top;flipH=1;rotation=-180;" vertex="1" parent="XPd1o2hhk6l_1hPqZxl7-1">
          <mxGeometry x="508" y="445" width="5" height="10" as="geometry" />
        </mxCell>
        <mxCell id="HH5l1YOxkUeo-8YhCR8G-76" value="" style="endArrow=none;html=1;rounded=0;align=center;verticalAlign=top;endFill=0;labelBackgroundColor=none;endSize=2;exitX=0.75;exitY=0;exitDx=0;exitDy=0;" edge="1" parent="XPd1o2hhk6l_1hPqZxl7-1" target="HH5l1YOxkUeo-8YhCR8G-77" source="XPd1o2hhk6l_1hPqZxl7-297">
          <mxGeometry relative="1" as="geometry">
            <mxPoint x="832.5" y="545" as="sourcePoint" />
            <Array as="points">
              <mxPoint x="700" y="195" />
            </Array>
          </mxGeometry>
        </mxCell>
        <mxCell id="HH5l1YOxkUeo-8YhCR8G-77" value="" style="shape=requiredInterface;html=1;fontSize=11;align=center;fillColor=none;points=[];aspect=fixed;resizable=0;verticalAlign=bottom;labelPosition=center;verticalLabelPosition=top;flipH=1;rotation=-180;" vertex="1" parent="XPd1o2hhk6l_1hPqZxl7-1">
          <mxGeometry x="621.5" y="184" width="5" height="10" as="geometry" />
        </mxCell>
        <mxCell id="HH5l1YOxkUeo-8YhCR8G-78" value="" style="endArrow=none;html=1;rounded=0;align=center;verticalAlign=top;endFill=0;labelBackgroundColor=none;endSize=2;exitX=0;exitY=0.5;exitDx=0;exitDy=0;" edge="1" parent="XPd1o2hhk6l_1hPqZxl7-1" target="HH5l1YOxkUeo-8YhCR8G-79" source="XPd1o2hhk6l_1hPqZxl7-297">
          <mxGeometry relative="1" as="geometry">
            <mxPoint x="842.5" y="555" as="sourcePoint" />
          </mxGeometry>
        </mxCell>
        <mxCell id="HH5l1YOxkUeo-8YhCR8G-79" value="" style="shape=requiredInterface;html=1;fontSize=11;align=center;fillColor=none;points=[];aspect=fixed;resizable=0;verticalAlign=bottom;labelPosition=center;verticalLabelPosition=top;flipH=1;rotation=-180;" vertex="1" parent="XPd1o2hhk6l_1hPqZxl7-1">
          <mxGeometry x="556.5" y="365" width="5" height="10" as="geometry" />
        </mxCell>
        <mxCell id="HH5l1YOxkUeo-8YhCR8G-80" value="" style="endArrow=none;html=1;rounded=0;align=center;verticalAlign=top;endFill=0;labelBackgroundColor=none;endSize=2;exitX=0.25;exitY=0;exitDx=0;exitDy=0;" edge="1" parent="XPd1o2hhk6l_1hPqZxl7-1" target="HH5l1YOxkUeo-8YhCR8G-81" source="XPd1o2hhk6l_1hPqZxl7-285">
          <mxGeometry relative="1" as="geometry">
            <mxPoint x="852.5" y="565" as="sourcePoint" />
          </mxGeometry>
        </mxCell>
        <mxCell id="HH5l1YOxkUeo-8YhCR8G-81" value="" style="shape=requiredInterface;html=1;fontSize=11;align=center;fillColor=none;points=[];aspect=fixed;resizable=0;verticalAlign=bottom;labelPosition=center;verticalLabelPosition=top;flipH=1;rotation=-90;" vertex="1" parent="XPd1o2hhk6l_1hPqZxl7-1">
          <mxGeometry x="415" y="444" width="5" height="10" as="geometry" />
        </mxCell>
        <mxCell id="HH5l1YOxkUeo-8YhCR8G-82" value="" style="endArrow=none;html=1;rounded=0;align=center;verticalAlign=top;endFill=0;labelBackgroundColor=none;endSize=2;exitX=0.25;exitY=1;exitDx=0;exitDy=0;" edge="1" parent="XPd1o2hhk6l_1hPqZxl7-1" target="HH5l1YOxkUeo-8YhCR8G-83" source="XPd1o2hhk6l_1hPqZxl7-306">
          <mxGeometry relative="1" as="geometry">
            <mxPoint x="862.5" y="575" as="sourcePoint" />
          </mxGeometry>
        </mxCell>
        <mxCell id="HH5l1YOxkUeo-8YhCR8G-83" value="" style="shape=requiredInterface;html=1;fontSize=11;align=center;fillColor=none;points=[];aspect=fixed;resizable=0;verticalAlign=bottom;labelPosition=center;verticalLabelPosition=top;flipH=1;rotation=-180;" vertex="1" parent="XPd1o2hhk6l_1hPqZxl7-1">
          <mxGeometry x="107.5" y="426" width="5" height="10" as="geometry" />
        </mxCell>
        <mxCell id="HH5l1YOxkUeo-8YhCR8G-84" value="" style="fontStyle=1;align=center;verticalAlign=top;childLayout=stackLayout;horizontal=1;horizontalStack=0;resizeParent=1;resizeParentMax=0;resizeLast=0;marginBottom=0;" vertex="1" parent="XPd1o2hhk6l_1hPqZxl7-1">
          <mxGeometry x="20" y="493" width="140" height="40" as="geometry" />
        </mxCell>
        <mxCell id="HH5l1YOxkUeo-8YhCR8G-85" value="&amp;lt;&amp;lt;component&amp;gt;&amp;gt;&lt;div&gt;AI&lt;/div&gt;" style="html=1;align=left;spacingLeft=4;verticalAlign=top;strokeColor=none;fillColor=none;whiteSpace=wrap;" vertex="1" parent="HH5l1YOxkUeo-8YhCR8G-84">
          <mxGeometry width="140" height="40" as="geometry" />
        </mxCell>
        <mxCell id="HH5l1YOxkUeo-8YhCR8G-86" value="" style="shape=module;jettyWidth=10;jettyHeight=4;" vertex="1" parent="HH5l1YOxkUeo-8YhCR8G-85">
          <mxGeometry x="1" width="16" height="20" relative="1" as="geometry">
            <mxPoint x="-25" y="9" as="offset" />
          </mxGeometry>
        </mxCell>
        <mxCell id="XPd1o2hhk6l_1hPqZxl7-361" value="" style="group" parent="XPd1o2hhk6l_1hPqZxl7-1" vertex="1" connectable="0">
          <mxGeometry x="386" y="478" width="140" height="70" as="geometry" />
        </mxCell>
        <mxCell id="XPd1o2hhk6l_1hPqZxl7-284" value="" style="fontStyle=1;align=center;verticalAlign=top;childLayout=stackLayout;horizontal=1;horizontalStack=0;resizeParent=1;resizeParentMax=0;resizeLast=0;marginBottom=0;" parent="XPd1o2hhk6l_1hPqZxl7-361" vertex="1">
          <mxGeometry y="30" width="140" height="40" as="geometry" />
        </mxCell>
        <mxCell id="XPd1o2hhk6l_1hPqZxl7-285" value="&amp;lt;&amp;lt;component&amp;gt;&amp;gt;&lt;div&gt;Attendancelist&lt;/div&gt;" style="html=1;align=left;spacingLeft=4;verticalAlign=top;strokeColor=none;fillColor=none;whiteSpace=wrap;" parent="XPd1o2hhk6l_1hPqZxl7-284" vertex="1">
          <mxGeometry width="140" height="40" as="geometry" />
        </mxCell>
        <mxCell id="XPd1o2hhk6l_1hPqZxl7-286" value="" style="shape=module;jettyWidth=10;jettyHeight=4;" parent="XPd1o2hhk6l_1hPqZxl7-285" vertex="1">
          <mxGeometry x="1" width="16" height="20" relative="1" as="geometry">
            <mxPoint x="-25" y="9" as="offset" />
          </mxGeometry>
        </mxCell>
        <mxCell id="HH5l1YOxkUeo-8YhCR8G-95" value="" style="endArrow=none;html=1;rounded=0;align=center;verticalAlign=top;endFill=0;labelBackgroundColor=none;endSize=2;exitX=0.75;exitY=0;exitDx=0;exitDy=0;" edge="1" parent="XPd1o2hhk6l_1hPqZxl7-1" target="HH5l1YOxkUeo-8YhCR8G-96" source="XPd1o2hhk6l_1hPqZxl7-285">
          <mxGeometry relative="1" as="geometry">
            <mxPoint x="736" y="705" as="sourcePoint" />
          </mxGeometry>
        </mxCell>
        <mxCell id="HH5l1YOxkUeo-8YhCR8G-96" value="" style="ellipse;html=1;fontSize=11;align=center;fillColor=none;points=[];aspect=fixed;resizable=0;verticalAlign=bottom;labelPosition=center;verticalLabelPosition=top;flipH=1;" vertex="1" parent="XPd1o2hhk6l_1hPqZxl7-1">
          <mxGeometry x="519.5" y="462" width="8" height="8" as="geometry" />
        </mxCell>
        <mxCell id="HH5l1YOxkUeo-8YhCR8G-97" value="" style="endArrow=none;html=1;rounded=0;align=center;verticalAlign=top;endFill=0;labelBackgroundColor=none;endSize=2;exitX=1;exitY=0.25;exitDx=0;exitDy=0;" edge="1" parent="XPd1o2hhk6l_1hPqZxl7-1" target="HH5l1YOxkUeo-8YhCR8G-98" source="HH5l1YOxkUeo-8YhCR8G-66">
          <mxGeometry relative="1" as="geometry">
            <mxPoint x="746" y="715" as="sourcePoint" />
          </mxGeometry>
        </mxCell>
        <mxCell id="HH5l1YOxkUeo-8YhCR8G-98" value="" style="ellipse;html=1;fontSize=11;align=center;fillColor=none;points=[];aspect=fixed;resizable=0;verticalAlign=bottom;labelPosition=center;verticalLabelPosition=top;flipH=1;" vertex="1" parent="XPd1o2hhk6l_1hPqZxl7-1">
          <mxGeometry x="500" y="446" width="8" height="8" as="geometry" />
        </mxCell>
        <mxCell id="HH5l1YOxkUeo-8YhCR8G-99" value="" style="endArrow=none;html=1;rounded=0;align=center;verticalAlign=top;endFill=0;labelBackgroundColor=none;endSize=2;exitX=1;exitY=0.5;exitDx=0;exitDy=0;" edge="1" parent="XPd1o2hhk6l_1hPqZxl7-1" target="HH5l1YOxkUeo-8YhCR8G-100" source="XPd1o2hhk6l_1hPqZxl7-294">
          <mxGeometry relative="1" as="geometry">
            <mxPoint x="756" y="725" as="sourcePoint" />
          </mxGeometry>
        </mxCell>
        <mxCell id="HH5l1YOxkUeo-8YhCR8G-100" value="" style="ellipse;html=1;fontSize=11;align=center;fillColor=none;points=[];aspect=fixed;resizable=0;verticalAlign=bottom;labelPosition=center;verticalLabelPosition=top;flipH=1;" vertex="1" parent="XPd1o2hhk6l_1hPqZxl7-1">
          <mxGeometry x="613.5" y="185" width="8" height="8" as="geometry" />
        </mxCell>
        <mxCell id="HH5l1YOxkUeo-8YhCR8G-101" value="" style="endArrow=none;html=1;rounded=0;align=center;verticalAlign=top;endFill=0;labelBackgroundColor=none;endSize=2;exitX=1;exitY=0.5;exitDx=0;exitDy=0;" edge="1" parent="XPd1o2hhk6l_1hPqZxl7-1" target="HH5l1YOxkUeo-8YhCR8G-102" source="XPd1o2hhk6l_1hPqZxl7-309">
          <mxGeometry relative="1" as="geometry">
            <mxPoint x="766" y="735" as="sourcePoint" />
          </mxGeometry>
        </mxCell>
        <mxCell id="HH5l1YOxkUeo-8YhCR8G-102" value="" style="ellipse;html=1;fontSize=11;align=center;fillColor=none;points=[];aspect=fixed;resizable=0;verticalAlign=bottom;labelPosition=center;verticalLabelPosition=top;flipH=1;" vertex="1" parent="XPd1o2hhk6l_1hPqZxl7-1">
          <mxGeometry x="549" y="366" width="8" height="8" as="geometry" />
        </mxCell>
        <mxCell id="HH5l1YOxkUeo-8YhCR8G-103" value="" style="endArrow=none;html=1;rounded=0;align=center;verticalAlign=top;endFill=0;labelBackgroundColor=none;endSize=2;exitX=0.5;exitY=1;exitDx=0;exitDy=0;" edge="1" parent="XPd1o2hhk6l_1hPqZxl7-1" target="HH5l1YOxkUeo-8YhCR8G-104" source="XPd1o2hhk6l_1hPqZxl7-309">
          <mxGeometry relative="1" as="geometry">
            <mxPoint x="776" y="745" as="sourcePoint" />
          </mxGeometry>
        </mxCell>
        <mxCell id="HH5l1YOxkUeo-8YhCR8G-104" value="" style="ellipse;html=1;fontSize=11;align=center;fillColor=none;points=[];aspect=fixed;resizable=0;verticalAlign=bottom;labelPosition=center;verticalLabelPosition=top;flipH=1;" vertex="1" parent="XPd1o2hhk6l_1hPqZxl7-1">
          <mxGeometry x="413.5" y="437" width="8" height="8" as="geometry" />
        </mxCell>
        <mxCell id="HH5l1YOxkUeo-8YhCR8G-69" value="" style="shape=requiredInterface;html=1;fontSize=11;align=center;fillColor=none;points=[];aspect=fixed;resizable=0;verticalAlign=bottom;labelPosition=center;verticalLabelPosition=top;flipH=1;rotation=90;" vertex="1" parent="XPd1o2hhk6l_1hPqZxl7-1">
          <mxGeometry x="436" y="120" width="5" height="10" as="geometry" />
        </mxCell>
        <mxCell id="HH5l1YOxkUeo-8YhCR8G-68" value="" style="endArrow=none;html=1;rounded=0;align=center;verticalAlign=top;endFill=0;labelBackgroundColor=none;endSize=2;exitX=0.5;exitY=1;exitDx=0;exitDy=0;" edge="1" parent="XPd1o2hhk6l_1hPqZxl7-1" target="HH5l1YOxkUeo-8YhCR8G-69" source="XPd1o2hhk6l_1hPqZxl7-291">
          <mxGeometry relative="1" as="geometry">
            <mxPoint x="912.5" y="320" as="sourcePoint" />
          </mxGeometry>
        </mxCell>
        <mxCell id="HH5l1YOxkUeo-8YhCR8G-94" value="" style="ellipse;html=1;fontSize=11;align=center;fillColor=none;points=[];aspect=fixed;resizable=0;verticalAlign=bottom;labelPosition=center;verticalLabelPosition=top;flipH=1;" vertex="1" parent="XPd1o2hhk6l_1hPqZxl7-1">
          <mxGeometry x="434.5" y="130" width="8" height="8" as="geometry" />
        </mxCell>
        <mxCell id="HH5l1YOxkUeo-8YhCR8G-93" value="" style="endArrow=none;html=1;rounded=0;align=center;verticalAlign=top;endFill=0;labelBackgroundColor=none;endSize=2;exitX=0.5;exitY=0;exitDx=0;exitDy=0;" edge="1" parent="XPd1o2hhk6l_1hPqZxl7-1" target="HH5l1YOxkUeo-8YhCR8G-94" source="XPd1o2hhk6l_1hPqZxl7-294">
          <mxGeometry relative="1" as="geometry">
            <mxPoint x="924" y="520" as="sourcePoint" />
          </mxGeometry>
        </mxCell>
        <mxCell id="HH5l1YOxkUeo-8YhCR8G-37" value="" style="endArrow=none;html=1;rounded=0;align=center;verticalAlign=top;endFill=0;labelBackgroundColor=none;endSize=2;exitX=0.5;exitY=1;exitDx=0;exitDy=0;" edge="1" parent="1" target="HH5l1YOxkUeo-8YhCR8G-38" source="XPd1o2hhk6l_1hPqZxl7-285">
          <mxGeometry relative="1" as="geometry">
            <mxPoint x="922.5" y="330" as="sourcePoint" />
          </mxGeometry>
        </mxCell>
        <mxCell id="HH5l1YOxkUeo-8YhCR8G-38" value="" style="shape=requiredInterface;html=1;fontSize=11;align=center;fillColor=none;points=[];aspect=fixed;resizable=0;verticalAlign=bottom;labelPosition=center;verticalLabelPosition=top;flipH=1;rotation=90;" vertex="1" parent="1">
          <mxGeometry x="473.5" y="585" width="5" height="10" as="geometry" />
        </mxCell>
        <mxCell id="HH5l1YOxkUeo-8YhCR8G-91" value="" style="endArrow=none;html=1;rounded=0;align=center;verticalAlign=top;endFill=0;labelBackgroundColor=none;endSize=2;exitX=0.5;exitY=0;exitDx=0;exitDy=0;" edge="1" parent="1" target="HH5l1YOxkUeo-8YhCR8G-92" source="XPd1o2hhk6l_1hPqZxl7-36">
          <mxGeometry relative="1" as="geometry">
            <mxPoint x="934" y="530" as="sourcePoint" />
          </mxGeometry>
        </mxCell>
        <mxCell id="HH5l1YOxkUeo-8YhCR8G-92" value="" style="ellipse;html=1;fontSize=11;align=center;fillColor=none;points=[];aspect=fixed;resizable=0;verticalAlign=bottom;labelPosition=center;verticalLabelPosition=top;flipH=1;" vertex="1" parent="1">
          <mxGeometry x="471.5" y="594" width="8" height="8" as="geometry" />
        </mxCell>
      </root>
    </mxGraphModel>
  </diagram>
</mxfile>
